<svg width="267" height="267" viewBox="0 0 267 267" fill="none" xmlns="http://www.w3.org/2000/svg">
<path d="M133 1C206.454 1 266 60.5461 266 134C266 207.454 206.454 267 133 267C59.5461 267 0 207.454 0 134C0 60.5461 59.5461 1 133 1ZM71.3506 159.936C57.228 152.898 40.0641 158.623 33.0146 172.721C25.9653 186.819 31.6997 203.953 45.8223 210.99C59.9448 218.027 77.1078 212.303 84.1572 198.205C91.2066 184.107 85.473 166.973 71.3506 159.936ZM208 151.2C197.667 151.358 187.777 157.122 182.843 166.99C175.793 181.088 181.527 198.222 195.649 205.26C209.772 212.297 226.936 206.573 233.985 192.475C241.034 178.376 235.3 161.243 221.178 154.206C217.467 152.357 213.546 151.389 209.654 151.223L209.09 150.429L208 151.2ZM47.627 180.002C50.6482 173.96 58.0042 171.508 64.0566 174.523C70.1088 177.54 72.566 184.882 69.5449 190.924C66.5238 196.966 59.1687 199.419 53.1162 196.403C47.0637 193.387 44.6058 186.044 47.627 180.002ZM91.5137 172.749L91.7861 196.872L103.561 196.739L103.288 172.617L91.5137 172.749ZM115.062 172.484L115.335 196.607L127.11 196.475L126.838 172.352L115.062 172.484ZM138.612 172.219L138.885 196.342L150.66 196.209L150.388 172.086L138.612 172.219ZM162.162 171.954L162.436 196.076L174.21 195.944L173.938 171.821L162.162 171.954ZM197.455 174.272C200.476 168.231 207.831 165.777 213.884 168.792C219.936 171.808 222.394 179.152 219.373 185.194C216.352 191.236 208.996 193.689 202.943 190.673C196.891 187.657 194.434 180.314 197.455 174.272ZM63.376 148.503L85.0234 159.226L90.1299 148.953L68.4824 138.229L63.376 148.503ZM175.672 145.096L182.525 154.741L202.236 140.783L195.383 131.139L175.672 145.096ZM73.5889 127.956L95.2363 138.68L100.343 128.407L78.6953 117.684L73.5889 127.956ZM161.965 125.806L168.818 135.45L188.528 121.492L181.675 111.848L161.965 125.806ZM83.8018 107.41L105.449 118.134L110.556 107.861L88.9082 97.1377L83.8018 107.41ZM148.257 106.515L155.11 116.16L174.821 102.202L167.968 92.5576L148.257 106.515ZM94.0146 86.8643L115.662 97.5879L120.769 87.3145L99.1211 76.5918L94.0146 86.8643ZM134.55 87.2246L141.403 96.8691L161.114 82.9121L154.261 73.2666L134.55 87.2246ZM138.875 28.0098C124.752 20.9726 107.588 26.6967 100.539 40.7949C93.4898 54.8931 99.2241 72.0273 113.347 79.0645C127.469 86.1014 144.632 80.3771 151.682 66.2793C158.731 52.1811 152.997 35.0471 138.875 28.0098ZM115.151 48.0762C118.173 42.0341 125.529 39.5807 131.581 42.5967C137.633 45.6127 140.09 52.956 137.069 58.998C134.048 65.0398 126.693 67.4923 120.641 64.4766C114.588 61.4606 112.13 54.1182 115.151 48.0762Z" fill="white"/>
</svg>
