<svg width="267" height="267" viewBox="0 0 267 267" fill="none" xmlns="http://www.w3.org/2000/svg">
<path d="M134 1C207.454 1 267 60.5461 267 134C267 207.454 207.454 267 134 267C60.5461 267 1 207.454 1 134C1 60.5461 60.5461 1 134 1ZM75.8086 39C54.3752 39 37 56.3779 37 77.8145C37.0001 99.2509 54.3753 116.629 75.8086 116.629C93.11 116.629 107.764 105.304 112.772 89.6631H183.655L184.15 89.6689C194.525 89.9318 202.855 98.4257 202.855 108.865C202.855 119.305 194.525 127.8 184.15 128.062L183.655 128.068H83.9785C58.9354 128.068 38.6338 148.373 38.6338 173.42C38.6338 198.467 58.9354 218.771 83.9785 218.771H184.473L176.507 226.738C172.559 230.687 172.559 237.089 176.507 241.038C180.455 244.987 186.856 244.987 190.805 241.038L219.4 212.438C219.462 212.377 219.522 212.315 219.582 212.252C220.001 211.812 220.371 211.342 220.695 210.852C220.88 210.571 221.051 210.285 221.205 209.991C221.668 209.111 221.991 208.176 222.176 207.22C222.237 206.901 222.284 206.58 222.314 206.258C222.5 204.324 222.13 202.347 221.205 200.586C221.128 200.439 221.047 200.294 220.962 200.15C220.58 199.504 220.12 198.891 219.582 198.325L219.4 198.139L190.805 169.538C186.857 165.589 180.455 165.59 176.507 169.538C172.559 173.487 172.559 179.89 176.507 183.839L185.289 192.623H83.9785L83.4834 192.616C73.1085 192.353 64.7783 183.86 64.7783 173.42C64.7783 162.98 73.1085 154.486 83.4834 154.224L83.9785 154.217H183.655C208.698 154.217 229 133.912 229 108.865C229 83.8185 208.698 63.5146 183.655 63.5146H111.897C106.204 49.1552 92.1925 39 75.8086 39ZM75.8086 63.5146C83.7051 63.5147 90.1064 69.9168 90.1064 77.8145C90.1063 85.712 83.705 92.1142 75.8086 92.1143C67.9122 92.1143 61.5108 85.712 61.5107 77.8145C61.5107 69.9168 67.9121 63.5146 75.8086 63.5146Z" fill="white"/>
</svg>
