<svg width="267" height="267" viewBox="0 0 267 267" fill="none" xmlns="http://www.w3.org/2000/svg">
<path d="M133 1C206.454 1 266 60.5461 266 134C266 207.454 206.454 267 133 267C59.5461 267 0 207.454 0 134C0 60.5461 59.5461 1 133 1ZM133 19C69.4873 19 18 70.4873 18 134C18 197.513 69.4873 249 133 249C196.513 249 248 197.513 248 134C248 70.4873 196.513 19 133 19ZM133 28C191.542 28 239 75.4578 239 134C239 192.542 191.542 240 133 240C74.4578 240 27 192.542 27 134C27 75.4578 74.4578 28 133 28ZM129.5 38C119.835 38 112 45.835 112 55.5V112H55.5C45.835 112 38 119.835 38 129.5V137.5C38 147.165 45.835 155 55.5 155H112V211.5C112 221.165 119.835 229 129.5 229H137.5C147.165 229 155 221.165 155 211.5V155H211.5C221.165 155 229 147.165 229 137.5V129.5C229 119.835 221.165 112 211.5 112H155V55.5C155 45.835 147.165 38 137.5 38H129.5Z" fill="white"/>
</svg>
