<svg width="268" height="268" viewBox="0 0 268 268" fill="none" xmlns="http://www.w3.org/2000/svg">
<g clip-path="url(#clip0_11_108)">
<path d="M134 0C208.006 0 268 59.9938 268 134C268 208.006 208.006 268 134 268C59.9938 268 0 208.006 0 134C0 59.9938 59.9938 0 134 0ZM130.5 37C120.835 37 113 44.835 113 54.5V112H55.5C45.835 112 38 119.835 38 129.5V137.5C38 147.165 45.835 155 55.5 155H113V212.5C113 222.165 120.835 230 130.5 230H138.5C148.165 230 156 222.165 156 212.5V155H213.5C223.165 155 231 147.165 231 137.5V129.5C231 119.835 223.165 112 213.5 112H156V54.5C156 44.835 148.165 37 138.5 37H130.5Z" fill="#76BE67"/>
</g>
<defs>
<clipPath id="clip0_11_108">
<rect width="268" height="268" fill="white"/>
</clipPath>
</defs>
</svg>
