<svg width="268" height="268" viewBox="0 0 268 268" fill="none" xmlns="http://www.w3.org/2000/svg">
<g clip-path="url(#clip0_11_109)">
<path d="M134 0C208.006 0 268 59.9938 268 134C268 208.006 208.006 268 134 268C59.9938 268 0 208.006 0 134C0 59.9938 59.9938 0 134 0ZM70 102V186.578C70 217.719 89.9552 232 114.571 232H155.429C180.045 232 200 217.719 200 186.578V102H70ZM114 128C118.418 128 122 131.582 122 136V192C122 196.418 118.418 200 114 200C109.582 200 106 196.418 106 192V136C106 131.582 109.582 128 114 128ZM154 128C158.418 128 162 131.582 162 136V192C162 196.418 158.418 200 154 200C149.582 200 146 196.418 146 192V136C146 131.582 149.582 128 154 128ZM63 71C58.5817 71 55 74.5817 55 79V88C55 92.4183 58.5817 96 63 96H205C209.418 96 213 92.4183 213 88V79C213 74.5817 209.418 71 205 71H63ZM113 47C109.134 47 106 50.134 106 54C106 57.866 109.134 61 113 61H155C158.866 61 162 57.866 162 54C162 50.134 158.866 47 155 47H113Z" fill="#D57070"/>
</g>
<defs>
<clipPath id="clip0_11_109">
<rect width="268" height="268" fill="white"/>
</clipPath>
</defs>
</svg>
