<svg width="267" height="267" viewBox="0 0 267 267" fill="none" xmlns="http://www.w3.org/2000/svg">
<path d="M133 1C206.454 1 266 60.5461 266 134C266 207.454 206.454 267 133 267C59.5461 267 0 207.454 0 134C0 60.5461 59.5461 1 133 1ZM161.399 40.5566C155.815 37.3527 148.672 39.2541 145.447 44.8008C128.223 74.4304 78.4114 160.12 71.7822 171.523C71.3013 172.35 71.0337 173.282 71.002 174.236C70.8385 179.28 70.2879 196.208 70.002 205.007C69.9678 206.076 70.5271 207.077 71.46 207.611C72.393 208.147 73.5464 208.128 74.4609 207.562C81.9908 202.918 96.4749 193.981 100.792 191.317C101.607 190.814 102.286 190.118 102.767 189.292C109.395 177.888 159.209 92.1995 176.434 62.5693C179.658 57.0214 177.744 49.9273 172.159 46.7246C168.708 44.7458 164.851 42.5342 161.399 40.5566ZM114.263 196C110.252 196 107 198.631 107 201.875V202.125C107 205.369 110.252 208 114.263 208H188.737C192.748 208 196 205.369 196 202.125V201.875C196 198.631 192.748 196 188.737 196H114.263Z" fill="#818181"/>
</svg>
