<svg width="267" height="267" viewBox="0 0 267 267" fill="none" xmlns="http://www.w3.org/2000/svg">
<path fill-rule="evenodd" clip-rule="evenodd" d="M105.171 175.549C103.988 175.982 102.66 175.73 101.715 174.895C100.77 174.062 100.364 172.781 100.656 171.561C103.063 161.529 107.693 142.231 109.073 136.479C109.334 135.392 109.861 134.385 110.609 133.55C120.911 122.028 170.524 66.7209 197.294 36.78C202.306 31.1751 210.953 30.6795 216.607 35.6763C220.101 38.7615 224.006 42.2114 227.5 45.2981C233.154 50.2934 233.676 58.888 228.664 64.4944C201.894 94.4354 152.279 149.74 141.977 161.264C141.23 162.098 140.287 162.737 139.231 163.122C133.647 165.16 114.911 171.996 105.171 175.549Z" fill="white"/>
<path d="M131.35 73.4227H86.9169C77.6873 73.4227 70.2051 80.9051 70.2049 90.1347V180.359C70.2049 189.589 77.6871 197.071 86.9169 197.071H177.142C186.371 197.071 193.854 189.589 193.854 180.359V135.926C193.854 126.611 221.029 126.611 221.029 135.926V201.964C221.029 214.27 211.053 224.247 198.746 224.247H65.312C53.0056 224.247 43.0292 214.27 43.0292 201.964V68.5298C43.0295 56.2236 53.0057 46.2471 65.312 46.2471H131.35C140.763 46.156 142.436 73.3314 131.35 73.4227Z" fill="white"/>
</svg>
