<svg width="268" height="268" viewBox="0 0 268 268" fill="none" xmlns="http://www.w3.org/2000/svg">
<g clip-path="url(#clip0_23_2)">
<path d="M134 0C208.006 0 268 59.9938 268 134C268 208.006 208.006 268 134 268C59.9938 268 0 208.006 0 134C0 59.9938 59.9938 0 134 0ZM133.789 187.75C123.572 187.75 115.289 195.809 115.289 205.75C115.289 215.691 123.572 223.75 133.789 223.75C144.006 223.75 152.289 215.691 152.289 205.75C152.289 195.809 144.006 187.75 133.789 187.75ZM119.004 44C107.936 44.0001 99.4897 53.8952 101.228 64.8262L116.513 160.952C119.73 181.183 148.849 181.183 152.065 160.952L167.351 64.8262C169.088 53.8951 160.642 44 149.573 44H119.004Z" fill="white"/>
</g>
<defs>
<clipPath id="clip0_23_2">
<rect width="268" height="268" fill="white"/>
</clipPath>
</defs>
</svg>
