<svg width="268" height="268" viewBox="0 0 268 268" fill="none" xmlns="http://www.w3.org/2000/svg">
<g clip-path="url(#clip0_24_14)">
<path d="M134 0C208.006 0 268 59.9938 268 134C268 208.006 208.006 268 134 268C59.9938 268 0 208.006 0 134C0 59.9938 59.9938 0 134 0ZM134 20C71.0395 20 20 71.0395 20 134C20 196.96 71.0395 248 134 248C196.96 248 248 196.96 248 134C248 71.0395 196.96 20 134 20ZM134 49C174.768 49 208.832 77.7013 217.09 116H145C135.059 116 127 124.059 127 134C127 143.941 135.059 152 145 152H217.09C208.832 190.299 174.768 219 134 219C87.0558 219 49 180.944 49 134C49 87.0558 87.0558 49 134 49Z" fill="white"/>
</g>
<defs>
<clipPath id="clip0_24_14">
<rect width="268" height="268" fill="white"/>
</clipPath>
</defs>
</svg>
