<svg width="267" height="267" viewBox="0 0 267 267" fill="none" xmlns="http://www.w3.org/2000/svg">
<path d="M133 1C206.454 1 266 60.5461 266 134C266 207.454 206.454 267 133 267C59.5461 267 0 207.454 0 134C0 60.5461 59.5461 1 133 1ZM132.607 160C126.274 160 121.139 165.118 121.139 171.431V199.081L113.578 191.546C109.099 187.082 101.838 187.082 97.3594 191.546C92.8809 196.01 92.8808 203.246 97.3594 207.71L124.391 234.652C128.869 239.116 136.131 239.116 140.609 234.652L167.642 207.71C172.12 203.246 172.12 196.01 167.642 191.546C163.163 187.082 155.901 187.082 151.422 191.546L144.076 198.867V171.431C144.076 165.118 138.941 160 132.607 160ZM74.8594 99.3594C70.4528 94.8809 63.308 94.8809 58.9014 99.3594L32.3047 126.391C27.8983 130.869 27.8983 138.131 32.3047 142.609L58.9014 169.642C63.308 174.12 70.4528 174.12 74.8594 169.642C79.2659 165.163 79.2657 157.901 74.8594 153.422L67.6309 146.076H94.7158C100.948 146.076 106 140.941 106 134.607C106 128.274 100.948 123.139 94.7158 123.139H67.4199L74.8594 115.578C79.2655 111.1 79.2654 103.838 74.8594 99.3594ZM206.322 99.3594C201.801 94.8808 194.471 94.8809 189.95 99.3594C185.429 103.838 185.429 111.099 189.95 115.578L197.365 122.925H169.577C163.183 122.925 158 128.059 158 134.393C158 140.726 163.183 145.861 169.577 145.861H197.582L189.95 153.422C185.429 157.901 185.429 165.163 189.95 169.642C194.471 174.12 201.801 174.12 206.322 169.642L233.609 142.609C238.13 138.131 238.13 130.869 233.609 126.391L206.322 99.3594ZM133 123C126.925 123 122 127.925 122 134C122 140.075 126.925 145 133 145C139.075 145 144 140.075 144 134C144 127.925 139.075 123 133 123ZM141.609 34.3477C137.131 29.8841 129.869 29.8841 125.391 34.3477L98.3594 61.29C93.8808 65.7539 93.8809 72.9902 98.3594 77.4541C102.838 81.9179 110.099 81.918 114.578 77.4541L121.925 70.1328V97.5693C121.925 103.882 127.059 109 133.393 109C139.726 109 144.861 103.882 144.861 97.5693V69.9189L152.422 77.4541C156.901 81.9179 164.163 81.918 168.642 77.4541C173.119 72.9903 173.12 65.7537 168.642 61.29L141.609 34.3477Z" fill="#818181"/>
</svg>
