<svg width="267" height="267" viewBox="0 0 267 267" fill="none" xmlns="http://www.w3.org/2000/svg">
<path d="M126.391 33.3477C130.87 28.8841 138.131 28.8841 142.609 33.3477L169.641 60.29C174.12 64.7538 174.12 71.9906 169.641 76.4545C165.162 80.9184 157.9 80.9184 153.422 76.4545L145.861 68.9192V96.5695C145.861 102.882 140.727 108 134.393 108C128.059 108 122.924 102.882 122.924 96.5695V69.1329L115.578 76.4545C111.1 80.9184 103.838 80.9184 99.3589 76.4545C94.8804 71.9906 94.8803 64.7538 99.3589 60.29L126.391 33.3477Z" fill="white"/>
<path d="M234.609 125.391C239.13 129.87 239.13 137.131 234.609 141.609L207.322 168.641C202.801 173.12 195.471 173.12 190.95 168.641C186.429 164.162 186.429 156.9 190.95 152.422L198.582 144.861L170.577 144.861C164.183 144.861 159 139.727 159 133.393C159 127.059 164.183 121.924 170.577 121.924L198.365 121.924L190.95 114.578C186.429 110.1 186.429 102.838 190.95 98.3589C195.471 93.8804 202.801 93.8803 207.322 98.3589L234.609 125.391Z" fill="white"/>
<path d="M141.609 233.652C137.13 238.116 129.869 238.116 125.391 233.652L98.3589 206.71C93.8803 202.246 93.8804 195.009 98.3589 190.546C102.838 186.082 110.1 186.082 114.578 190.546L122.139 198.081L122.139 170.431C122.139 164.118 127.273 159 133.607 159C139.941 159 145.076 164.118 145.076 170.431L145.076 197.867L152.422 190.546C156.9 186.082 164.162 186.082 168.641 190.546C173.12 195.009 173.12 202.246 168.641 206.71L141.609 233.652Z" fill="white"/>
<path d="M33.3048 141.609C28.8984 137.13 28.8984 129.869 33.3048 125.391L59.9016 98.3589C64.3082 93.8803 71.4523 93.8804 75.8589 98.3589C80.2656 102.838 80.2656 110.1 75.8589 114.578L68.4202 122.139L95.716 122.139C101.948 122.139 107 127.273 107 133.607C107 139.941 101.948 145.076 95.716 145.076L68.6312 145.076L75.8589 152.422C80.2656 156.9 80.2656 164.162 75.8589 168.641C71.4523 173.12 64.3082 173.12 59.9016 168.641L33.3048 141.609Z" fill="white"/>
<circle cx="134" cy="133" r="11" fill="white"/>
</svg>
