<svg width="267" height="267" viewBox="0 0 267 267" fill="none" xmlns="http://www.w3.org/2000/svg">
<path fill-rule="evenodd" clip-rule="evenodd" d="M192.041 66L101 159.332V201.311C101 203.844 102.668 206.07 105.091 206.775C107.514 207.479 110.11 206.491 111.457 204.35C136.148 165.13 196 70.0579 196 70.0579" fill="#4396A1"/>
<path fill-rule="evenodd" clip-rule="evenodd" d="M210.747 59.3504C211.37 57.3398 210.823 55.1517 209.326 53.6639C207.829 52.176 205.628 51.6326 203.605 52.2513C172.423 61.7877 79.5014 90.2058 50.0345 99.2182C48.1181 99.8029 46.6517 101.344 46.1686 103.277C45.6855 105.21 46.2567 107.253 47.6741 108.662C68.6754 129.537 132.99 193.462 153.992 214.337C155.409 215.745 157.465 216.313 159.409 215.832C161.355 215.352 162.905 213.895 163.494 211.991C172.562 182.703 201.153 90.3419 210.747 59.3504Z" fill="#4396A1"/>
<path fill-rule="evenodd" clip-rule="evenodd" d="M163.591 211.96L210.748 59.5791C211.318 57.7323 210.904 55.7375 209.672 54.2732C209.565 54.1833 209.462 54.0923 209.368 54L101 161.608L154.018 214.324C155.446 215.743 157.518 216.315 159.477 215.831C161.437 215.348 162.381 213.566 163.591 211.96Z" fill="#6DBBC5"/>
</svg>
