<svg width="267" height="267" viewBox="0 0 267 267" fill="none" xmlns="http://www.w3.org/2000/svg">
<path d="M134 1C207.454 1 267 60.5461 267 134C267 207.454 207.454 267 134 267C60.5461 267 1 207.454 1 134C1 60.5461 60.5461 1 134 1ZM101 170.607L154.019 223.324C155.446 224.743 157.518 225.315 159.477 224.831C161.436 224.348 162.381 222.566 163.591 220.96L210.748 68.5791C211.318 66.7324 210.904 64.7377 209.672 63.2734C209.564 63.1836 209.462 63.0923 209.368 63L101 170.607ZM100 215.71C100 218.242 101.668 220.469 104.091 221.174C106.514 221.877 109.109 220.889 110.457 218.749C114.194 212.812 118.738 205.595 123.757 197.622L100 174V215.71ZM207.329 60.875C205.938 60.0045 204.216 59.7585 202.605 60.251C171.424 69.7873 78.5023 98.2053 49.0352 107.218C47.1188 107.802 45.6521 109.344 45.1689 111.276C44.6859 113.209 45.2574 115.253 46.6748 116.662C57.0337 126.959 77.9301 147.729 98.9688 168.641L207.329 60.875Z" fill="white"/>
</svg>
