<svg width="267" height="267" viewBox="0 0 267 267" fill="none" xmlns="http://www.w3.org/2000/svg">
<path d="M165.908 43.6621C169.097 42.091 172.952 43.4107 174.518 46.6045L188.15 74.4219C189.619 77.4184 188.554 81.0038 185.782 82.7324L185.509 82.8936C185.414 82.9461 185.317 82.9976 185.217 83.0469L157.474 96.7178C154.284 98.2893 150.43 96.9685 148.864 93.7744C147.3 90.5821 148.612 86.7202 151.799 85.1494L162.564 79.8438C133.418 68.6054 99.6352 79.9688 83.5264 107.944C65.6907 138.919 76.2767 178.526 107.166 196.408C138.054 214.289 177.552 203.679 195.387 172.705L195.887 171.837L196.754 172.339L210.501 180.297L211.364 180.797L210.866 181.661C202.712 195.822 190.553 207.241 175.927 214.474C161.3 221.706 144.863 224.427 128.693 222.293C112.524 220.158 97.349 213.264 85.0879 202.482C72.827 191.701 64.0302 177.516 59.8096 161.723C55.589 145.929 56.1342 129.234 61.376 113.751C66.6179 98.2679 76.3207 84.6897 89.2588 74.7354C102.197 64.781 117.79 58.8967 134.063 57.8271C145.695 57.0628 157.3 58.7841 168.132 62.8125L162.975 52.2881C161.41 49.0957 162.721 45.233 165.908 43.6621Z" fill="#1E1E1E" stroke="#1E1E1E" stroke-width="2"/>
</svg>
