<svg width="552" height="552" viewBox="0 0 552 552" fill="none" xmlns="http://www.w3.org/2000/svg">
<path d="M276.867 10.5098C276.956 10.5152 277.046 10.5229 277.097 10.5273C277.16 10.5329 277.25 10.541 277.359 10.5508L277.358 10.5518C281.535 10.9158 286.309 12.968 291.196 15.8721C296.197 18.8437 301.759 22.9771 307.594 28.0098C319.271 38.0811 332.324 51.9962 344.539 68.1104C368.842 100.17 390.5 141.829 390.5 179.946V505.5H162.5V179.946C162.5 141.83 184.158 100.17 208.46 68.1113C220.675 51.9972 233.728 38.0822 245.405 28.0107C251.24 22.9782 256.801 18.8448 261.802 15.873C266.689 12.9687 271.464 10.916 275.641 10.5518C275.75 10.542 275.839 10.5329 275.902 10.5273C275.953 10.523 276.043 10.5152 276.132 10.5098C276.22 10.5043 276.346 10.5021 276.499 10.5039C276.653 10.502 276.779 10.5043 276.867 10.5098Z" stroke="black" stroke-width="9"/>
</svg>
