<svg width="268" height="268" viewBox="0 0 268 268" fill="none" xmlns="http://www.w3.org/2000/svg">
<g clip-path="url(#clip0_23_11)">
<path d="M134 0C208.006 0 268 59.9938 268 134C268 208.006 208.006 268 134 268C59.9938 268 0 208.006 0 134C0 59.9938 59.9938 0 134 0ZM199.758 64.7002C192.924 57.866 181.843 57.866 175.009 64.7002L135.058 104.651L95.1055 64.7002C88.2713 57.8663 77.1915 57.8663 70.3574 64.7002L64.7002 70.3574C57.8663 77.1915 57.8663 88.2713 64.7002 95.1055L104.651 135.058L64.7002 175.009C57.866 181.843 57.866 192.924 64.7002 199.758L70.3574 205.414C77.1916 212.248 88.2713 212.248 95.1055 205.414L135.058 165.463L175.009 205.414C181.843 212.248 192.924 212.248 199.758 205.414L205.414 199.758C212.248 192.924 212.248 181.843 205.414 175.009L165.463 135.058L205.414 95.1055C212.248 88.2713 212.248 77.1916 205.414 70.3574L199.758 64.7002Z" fill="white"/>
</g>
<defs>
<clipPath id="clip0_23_11">
<rect width="268" height="268" fill="white"/>
</clipPath>
</defs>
</svg>
