<svg width="267" height="267" viewBox="0 0 267 267" fill="none" xmlns="http://www.w3.org/2000/svg">
<g clip-path="url(#clip0_43_2)">
<path d="M141.169 15.3736C159.286 24.4165 166.641 46.4336 157.599 64.5499C148.556 82.6661 126.539 90.0217 108.422 80.979C90.306 71.9361 82.9504 49.919 91.9932 31.8027C101.036 13.6863 123.053 6.33075 141.169 15.3736ZM131.813 34.1184C124.049 30.2429 114.613 33.3946 110.737 41.1588C106.862 48.9229 110.015 58.3587 117.779 62.2342C125.543 66.1095 134.978 62.9574 138.854 55.1934C142.729 47.4293 139.577 37.9939 131.813 34.1184Z" fill="#FF6C6C"/>
<path d="M246.747 177.536C264.863 186.579 272.219 208.595 263.176 226.712C254.133 244.828 232.116 252.184 214 243.141C195.884 234.098 188.528 212.081 197.571 193.965C206.614 175.849 228.631 168.494 246.747 177.536ZM237.391 196.28C229.627 192.405 220.191 195.558 216.315 203.322C212.44 211.086 215.592 220.521 223.356 224.397C231.12 228.272 240.556 225.12 244.432 217.357C248.307 209.592 245.155 200.156 237.391 196.28Z" fill="#FF6C6C"/>
<path d="M54.5499 184.899C72.666 193.942 80.0218 215.959 70.9789 234.076C61.9361 252.192 39.9189 259.547 21.8027 250.505C3.68634 241.462 -3.6692 219.445 5.37359 201.329C14.4164 183.212 36.4335 175.857 54.5499 184.899ZM45.1933 203.644C37.4292 199.769 27.993 202.92 24.1175 210.685C20.242 218.449 23.3951 227.885 31.1592 231.76C38.9233 235.635 48.3587 232.483 52.2342 224.719C56.1096 216.955 52.9573 207.52 45.1933 203.644Z" fill="#FF6C6C"/>
<line x1="135.076" y1="63.9055" x2="222.994" y2="187.847" stroke="#FF6C6C" stroke-width="31" stroke-dasharray="16 16"/>
<line x1="208.979" y1="215.415" x2="57.9325" y2="217.12" stroke="#FF6C6C" stroke-width="31" stroke-dasharray="16 16"/>
<line x1="113.885" y1="64.8898" x2="48.3792" y2="196.899" stroke="#FF6C6C" stroke-width="31" stroke-dasharray="16 16"/>
</g>
<defs>
<clipPath id="clip0_43_2">
<rect width="267" height="267" fill="white"/>
</clipPath>
</defs>
</svg>
